<?xml version="1.0" encoding="UTF-8"?>
<svg id="Layer_2" data-name="Layer 2" xmlns="http://www.w3.org/2000/svg" xmlns:xlink="http://www.w3.org/1999/xlink" viewBox="0 0 1280 105.72">
  <defs>
    <style>
      .cls-1 {
        stroke: #6ac04b;
      }

      .cls-1, .cls-2, .cls-3, .cls-4, .cls-5, .cls-6 {
        fill: none;
      }

      .cls-1, .cls-2, .cls-3, .cls-5, .cls-6 {
        stroke-miterlimit: 10;
        stroke-width: 2px;
      }

      .cls-2 {
        stroke: #ffb71b;
      }

      .cls-3 {
        stroke: #00c1de;
      }

      .cls-4 {
        stroke-width: 0px;
      }

      .cls-7 {
        clip-path: url(#clippath);
      }

      .cls-5 {
        stroke: #000f9f;
      }

      .cls-6 {
        stroke: #007935;
      }
    </style>
    <clipPath id="clippath">
      <rect class="cls-4" y="0" width="1280" height="105.72"/>
    </clipPath>
  </defs>
  <g id="Layer_1-2" data-name="Layer 1">
    <g class="cls-7">
      <path class="cls-1" d="M1873.72,69.41s-120.49-15.2-575.91-15.06c-150.17.05-343.49,3.59-470.89,7.18-192.42,5.42-232.15,12.11-425.57,11.33-56.6-.23-108.98-1.62-156.74-3.98-92.32-4.56-163.45-11.76-218.97-18.95-72.83-9.42-117.69-18.42-117.69-18.42"/>
      <path class="cls-5" d="M-145.67,74.42c1154.33-14.13,959.67-87.69,2402.86-14.69"/>
      <path class="cls-3" d="M-89.73,50.28S114.43,32.99,423.48,28.17c58.33-.91,190.2-2.53,312.8.34,118.95,2.78,245.33,12.31,441.05,17.55,86.19,2.31,185.1,4.13,303.98,3.59,273.03-1.24,370-17.69,370-17.69"/>
      <path class="cls-6" d="M-89.97,59.54s181.96,17.16,491.03,19.12c212.25,1.35,349.68-5.78,519.81-10.5,96.35-2.67,195.36-4.43,299.56-4.01,309.51,1.24,389.25,10.95,485.26,21.69,77.61,8.68,308.23,33.14,395.08,16.5"/>
      <path class="cls-2" d="M1867.9,74.42c-142.29,1.84-142.29-29.82-321.64-31.63-233.04-2.35-181.7,23.8-477.47,25.17-417.05,1.94-377.58-60.82-1214.47-42.24"/>
    </g>
  </g>
</svg>