<?xml version="1.0" encoding="UTF-8"?>
<svg id="Layer_2" data-name="Layer 2" xmlns="http://www.w3.org/2000/svg" xmlns:xlink="http://www.w3.org/1999/xlink" viewBox="0 0 234.36 114.84">
  <defs>
    <style>
      .cls-1 {
        fill: none;
      }

      .cls-1, .cls-2 {
        stroke-width: 0px;
      }

      .cls-3 {
        clip-path: url(#clippath);
      }

      .cls-2 {
        fill: #fff;
      }
    </style>
    <clipPath id="clippath">
      <rect class="cls-1" width="234.36" height="114.84"/>
    </clipPath>
  </defs>
  <g id="Layer_1-2" data-name="Layer 1">
    <g class="cls-3">
      <path class="cls-2" d="M93.61,45.2c4.16-.83,12.49-1.56,20.51-1.56,9.68,0,15.61.93,20.72,3.94,4.89,2.59,8.33,7.36,8.33,13.79s-3.64,11.82-11.45,14.83v.21c8.01,2.07,13.95,8.19,13.95,17.21,0,6.43-2.91,11.4-7.29,14.83-5.1,4.04-13.64,6.32-27.59,6.32-7.81,0-13.64-.52-17.18-1.04V45.2ZM109.33,71.84h5.21c8.43,0,12.8-3.42,12.8-8.61s-4.06-8.09-11.24-8.09c-3.54,0-5.52.21-6.77.52v16.18ZM109.33,102.84c1.56.31,3.44.31,6.14.31,7.18,0,13.53-2.8,13.53-10.16s-6.35-9.85-14.26-9.85h-5.41v19.7Z"/>
      <path class="cls-2" d="M207.92,112.07c-2.81,1.35-9.47,3.01-17.91,3.01-24.26,0-36.75-15.13-36.75-35.04,0-23.75,17.07-36.91,38.31-36.91,8.23,0,14.47,1.66,17.28,3.01l-3.33,12.55c-3.12-1.35-7.6-2.59-13.33-2.59-12.49,0-22.28,7.57-22.28,23.12,0,13.9,8.33,22.71,22.38,22.71,4.9,0,10.1-.93,13.33-2.28l2.29,12.44Z"/>
      <rect class="cls-2" x="218.53" y="44.16" width="15.82" height="69.88"/>
      <path class="cls-2" d="M0,27.25v19.39c3.62-2.05,7.19-3.97,10.69-5.78C7.12,36.61,3.56,32.08,0,27.25"/>
      <path class="cls-2" d="M0,20.11c4.84,6.83,9.68,13.08,14.53,18.79,30.3-15.17,54.05-21.19,55.59-21.57.48-.15,3.18-.98,7.63-2.15V0H0v20.12Z"/>
      <path class="cls-2" d="M71.16,21.36c-.34.08-23.66,5.81-53.83,20.79,20.41,23.21,40.8,37.07,60.42,44.68V19.49c-4.01,1.07-6.3,1.79-6.44,1.83l-.15.04Z"/>
      <path class="cls-2" d="M13.46,44.11C9.08,46.36,4.58,48.79,0,51.43v20.07c16.12,10.45,36.74,19.43,59.43,25.61,6.04,1.65,12.16,3.06,18.32,4.27v-9.93c-20.86-7.78-42.58-22.38-64.29-47.34"/>
      <path class="cls-2" d="M0,76.41v37.53h77.75v-8.32c-6.53-1.25-13.01-2.75-19.41-4.49C36.31,95.13,16.15,86.5,0,76.41"/>
      <path class="cls-2" d="M100.64,4.99c0,2.83-2.22,5.05-5.11,5.05s-5.14-2.22-5.14-5.05S92.67,0,95.53,0s5.11,2.22,5.11,4.99M91.67,4.99c0,2.22,1.64,3.98,3.89,3.98s3.8-1.76,3.8-3.95-1.61-4.02-3.83-4.02-3.86,1.79-3.86,3.99M94.74,7.6h-1.16V2.62c.46-.09,1.1-.15,1.92-.15.94,0,1.37.15,1.73.36.27.21.49.61.49,1.1,0,.55-.42.97-1.03,1.16v.06c.49.18.76.55.91,1.22.15.76.24,1.07.36,1.25h-1.25c-.15-.18-.24-.64-.4-1.22-.09-.55-.39-.79-1.03-.79h-.55v2.01ZM94.77,4.77h.55c.64,0,1.16-.21,1.16-.73,0-.46-.33-.76-1.07-.76-.3,0-.52.03-.64.06v1.43Z"/>
    </g>
  </g>
</svg>