<?xml version="1.0" encoding="UTF-8"?>
<svg id="Layer_2" data-name="Layer 2" xmlns="http://www.w3.org/2000/svg" xmlns:xlink="http://www.w3.org/1999/xlink" viewBox="0 0 98.02 48.03">
  <defs>
    <style>
      .cls-1 {
        fill: #f1b634;
      }

      .cls-1, .cls-2, .cls-3, .cls-4, .cls-5, .cls-6, .cls-7, .cls-8 {
        stroke-width: 0px;
      }

      .cls-2 {
        fill: #2d4190;
      }

      .cls-3 {
        fill: #69bfdc;
      }

      .cls-4 {
        fill: #35783c;
      }

      .cls-5 {
        fill: none;
      }

      .cls-6 {
        fill: #191e25;
      }

      .cls-7 {
        fill: #272525;
      }

      .cls-9 {
        clip-path: url(#clippath);
      }

      .cls-8 {
        fill: #88be55;
      }
    </style>
    <clipPath id="clippath">
      <rect class="cls-5" width="98.02" height="48.03"/>
    </clipPath>
  </defs>
  <g id="Layer_1-2" data-name="Layer 1">
    <g class="cls-9">
      <path class="cls-6" d="M39.15,18.9c1.74-.35,5.22-.65,8.58-.65,4.05,0,6.53.39,8.66,1.65,2.05,1.08,3.48,3.08,3.48,5.77s-1.52,4.94-4.79,6.2v.09c3.35.87,5.83,3.43,5.83,7.2,0,2.69-1.22,4.77-3.05,6.2-2.13,1.69-5.7,2.65-11.54,2.65-3.27,0-5.7-.22-7.18-.43v-28.67ZM45.73,30.05h2.18c3.53,0,5.36-1.43,5.36-3.6s-1.7-3.38-4.7-3.38c-1.48,0-2.31.09-2.83.22v6.76ZM45.73,43.02c.65.13,1.44.13,2.57.13,3,0,5.66-1.17,5.66-4.25s-2.66-4.12-5.97-4.12h-2.26v8.24Z"/>
      <path class="cls-6" d="M86.96,46.88c-1.18.56-3.96,1.26-7.49,1.26-10.14,0-15.37-6.33-15.37-14.66,0-9.93,7.14-15.44,16.02-15.44,3.44,0,6.05.69,7.23,1.26l-1.39,5.25c-1.31-.56-3.18-1.08-5.57-1.08-5.23,0-9.32,3.17-9.32,9.67,0,5.81,3.48,9.5,9.36,9.5,2.05,0,4.22-.39,5.57-.95l.96,5.2Z"/>
      <rect class="cls-6" x="91.4" y="18.47" width="6.62" height="29.23"/>
      <path class="cls-1" d="M0,11.4v8.11c1.52-.86,3.01-1.66,4.47-2.42C2.98,15.31,1.49,13.42,0,11.4"/>
      <path class="cls-2" d="M0,8.41c2.02,2.86,4.05,5.47,6.08,7.86,12.67-6.34,22.61-8.86,23.25-9.02.2-.06,1.33-.41,3.19-.9V0H0v8.41Z"/>
      <path class="cls-3" d="M29.76,8.94c-.14.04-9.9,2.43-22.52,8.69,8.54,9.71,17.07,15.5,25.27,18.69V8.15c-1.68.45-2.64.75-2.7.77l-.06.02Z"/>
      <path class="cls-8" d="M5.63,18.45C3.8,19.39,1.92,20.41,0,21.51v8.39c6.74,4.37,15.36,8.13,24.86,10.71,2.53.69,5.09,1.28,7.66,1.78v-4.15c-8.73-3.26-17.81-9.36-26.89-19.8"/>
      <path class="cls-4" d="M0,31.96v15.69h32.52v-3.48c-2.73-.53-5.44-1.15-8.12-1.88C15.18,39.79,6.75,36.18,0,31.96"/>
      <path class="cls-7" d="M42.09,2.09c0,1.18-.93,2.11-2.14,2.11s-2.15-.93-2.15-2.11S38.76,0,39.96,0s2.14.93,2.14,2.09M38.34,2.09c0,.93.69,1.67,1.63,1.67s1.59-.74,1.59-1.65-.67-1.68-1.6-1.68-1.62.75-1.62,1.67M39.62,3.18h-.48V1.09c.19-.04.46-.06.8-.06.39,0,.57.06.73.15.11.09.2.25.2.46,0,.23-.18.41-.43.48v.03c.2.08.32.23.38.51.06.32.1.45.15.52h-.52c-.06-.08-.1-.27-.16-.51-.04-.23-.17-.33-.43-.33h-.23v.84ZM39.64,2h.23c.27,0,.48-.09.48-.3,0-.19-.14-.32-.45-.32-.13,0-.22.01-.27.02v.6Z"/>
    </g>
  </g>
</svg>