<?xml version="1.0" encoding="UTF-8"?>
<svg id="Layer_2" data-name="Layer 2" xmlns="http://www.w3.org/2000/svg" viewBox="0 0 20 20">
  <defs>
    <style>
      .cls-1 {
        fill: #969696;
        stroke-width: 0px;
      }
    </style>
  </defs>
  <g id="Layer_1-2" data-name="Layer 1">
    <path class="cls-1" d="M17.04,17.04h-2.97v-4.64c0-1.11-.02-2.53-1.54-2.53s-1.78,1.21-1.78,2.45v4.72h-2.96V7.5h2.84v1.3h.04c.39-.75,1.36-1.54,2.81-1.54,3,0,3.56,1.98,3.56,4.55v5.24ZM4.45,6.19c-.95,0-1.72-.77-1.72-1.72s.77-1.72,1.72-1.72,1.72.77,1.72,1.72-.77,1.72-1.72,1.72M5.93,17.04h-2.97V7.5h2.97v9.54ZM18.52,0H1.48C.66,0,0,.65,0,1.44v17.11c0,.8.66,1.44,1.48,1.44h17.04c.82,0,1.48-.65,1.48-1.44V1.44c0-.8-.66-1.44-1.48-1.44"/>
  </g>
</svg>