<?xml version="1.0" encoding="UTF-8"?>
<svg id="Layer_2" data-name="Layer 2" xmlns="http://www.w3.org/2000/svg" xmlns:xlink="http://www.w3.org/1999/xlink" viewBox="0 0 1278.01 189.74">
  <defs>
    <style>
      .cls-1 {
        stroke-width: 2.88px;
      }

      .cls-1, .cls-2, .cls-3 {
        fill: none;
      }

      .cls-1, .cls-3 {
        stroke: #ffb71b;
        stroke-linecap: round;
        stroke-linejoin: round;
      }

      .cls-2 {
        stroke-width: 0px;
      }

      .cls-4 {
        clip-path: url(#clippath-1);
      }

      .cls-5 {
        clip-path: url(#clippath);
      }

      .cls-3 {
        stroke-width: 2.95px;
      }
    </style>
    <clipPath id="clippath">
      <rect class="cls-2" width="1278.01" height="189.74"/>
    </clipPath>
    <clipPath id="clippath-1">
      <path class="cls-2" d="M1010.99,68.77c-1.53,1.45-3,2.96-4.41,4.53v99.93c1.41,1.57,2.88,3.08,4.41,4.53h103.05c1.53-1.45,3-2.96,4.41-4.53v-99.93c-1.41-1.57-2.88-3.08-4.41-4.53h-103.05Z"/>
    </clipPath>
  </defs>
  <g id="Layer_1-2" data-name="Layer 1">
    <g class="cls-5">
      <g>
        <g class="cls-4">
          <path class="cls-1" d="M1116.77,123.07h-46.6l.19,38.21c0,5.25-4.26,9.51-9.51,9.51s-9.51-4.26-9.51-9.51v-41.08s-1.34-8.91,11.1-8.91,12.28,5.21.17,5.21c-12.95,0-13.02-5.38-13.02-5.38v-33.86h-.32c-2.44,0-4.42-1.52-4.42-3.4s1.98-3.4,4.42-3.4h26.54c2.44,0,4.42,1.52,4.42,3.4s-1.98,3.4-4.42,3.4h-7.64,7.32l-.05,84.23c0,8.06-6.54,14.6-14.6,14.6s-14.6-6.54-14.6-14.6l-.04-38.42h-37.96"/>
        </g>
        <path class="cls-3" d="M0,56.25c74.7-2.35,74.7,38.24,168.84,40.56,122.33,3.01,95.38-30.51,250.64-32.28,189.25-2.15,199.42,57.7,482.5,58.57,44.38.14,90.33.11,90.33.11"/>
        <path class="cls-3" d="M1972.65,225.56c-63.29,3.6-63.29-58.54-143.05-62.09-103.64-4.61-80.81,46.71-212.36,49.41-160.34,3.29-168.96-88.32-408.8-89.66-37.6-.21-76.53-.16-76.53-.16"/>
      </g>
    </g>
  </g>
</svg>