<?xml version="1.0" encoding="UTF-8"?>
<svg id="Layer_2" data-name="Layer 2" xmlns="http://www.w3.org/2000/svg" xmlns:xlink="http://www.w3.org/1999/xlink" viewBox="0 0 1280 180.4">
  <defs>
    <style>
      .cls-1 {
        stroke: #6ac04b;
        stroke-width: 3px;
      }

      .cls-1, .cls-2, .cls-3 {
        fill: none;
      }

      .cls-1, .cls-3 {
        stroke-linecap: round;
        stroke-linejoin: round;
      }

      .cls-2 {
        stroke-width: 0px;
      }

      .cls-4 {
        clip-path: url(#clippath-1);
      }

      .cls-5 {
        clip-path: url(#clippath);
      }

      .cls-3 {
        stroke: #6ac04a;
        stroke-width: 2.95px;
      }
    </style>
    <clipPath id="clippath">
      <rect class="cls-2" width="1280" height="180.4"/>
    </clipPath>
    <clipPath id="clippath-1">
      <path class="cls-2" d="M1005.25,70.15c-2.17,2.72-4.14,5.6-5.92,8.61v76.05c1.96,3.33,4.17,6.49,6.61,9.47h116.1c2.23-2.72,4.27-5.59,6.1-8.61v-77.76c-1.64-2.7-3.45-5.29-5.41-7.75h-117.48Z"/>
    </clipPath>
  </defs>
  <g id="Layer_1-2" data-name="Layer 1">
    <g class="cls-5">
      <g>
        <g class="cls-4">
          <path class="cls-1" d="M1126.39,116.37h-6.57v-10.96l-28.03-33.51-7.53,6.98,27.45,31.52-13.91,12.86,9.19-8.4-27.91-32.09s-2.73,7.6-16.22,5.51c-4.15-.64-10.8,2.8-11.25,5.5-.45,2.7-2.93,6.72-3.89,7.73-7.3,7.73,3.21,10.54,6.77,6.7,2.46-2.65,6.15-7.06,6.15-7.06l6.34.41,31.77,32.37c1.99,2.11,1.97,5.51-.04,7.6-2.01,2.09-5.25,2.07-7.24-.04l-18.76-18.6h0s18.76,18.6,18.76,18.6c1.99,2.11,1.97,5.51-.04,7.6-2.01,2.09-6.86,1.23-8.85-.88l-16.32-15.96h0s16.32,15.96,16.32,15.96c1.99,2.11,1.97,5.51-.04,7.6-2.01,2.09-5.25,2.07-7.24-.04l-14.62-14.09,11.43,11.3c1.99,2.11,2.21,5.41.2,7.5-2.01,2.08-5.25,2.07-7.24-.04l-5.51-5.5-3.07,2.45c-2.45,2.05-5.26,1.91-7.36-.39-1.76-1.93-1.64-5.27-.24-7.33.06-.08,2.43-2.91,2.43-2.91l3.59,3.57-3.59-3.57-2.43,2.91-1.41,1.08c-2.61,1.95-6.23,1.31-8.09-1.42-1.59-2.34-1.79-5.36-.06-7.43.03-.03,3.55-3.63,3.55-3.63l4.74,4.8-4.74-4.8-3.55,3.63-1.27.96c-2.61,1.95-6.23,1.32-8.09-1.42-1.5-2.21-1.41-5.46.07-7.52.05-.07,4.14-4.18,4.14-4.18l4.54,4.38-4.54-4.38-4.14,4.18-.97.73c-2.61,1.95-6.23,1.31-8.09-1.42-1.86-2.74-1.25-6.54,1.36-8.49l3.77-3.28,4.16,4.21-4.16-4.23-.56-.49-7.61-7.58,25.39-31.09,11.7,1.17-11.7-1.17-8.88-8.06-24.74,29.92,4.55,5.16-6.27,7.28-6.9-.04"/>
        </g>
        <path class="cls-3" d="M993.79,113.53c-74.7,2.35-74.7-38.24-168.84-40.56-122.33-3.01-95.38,30.51-250.64,32.28-189.25,2.15-199.42-57.7-482.5-58.57-44.38-.14-90.33-.11-90.33-.11"/>
        <path class="cls-3" d="M1974.13,219.08c-63.29,3.6-63.29-58.54-143.05-62.09-103.64-4.61-80.81,46.71-212.36,49.41-160.34,3.29-168.96-88.32-408.8-89.66-37.6-.21-76.53-.16-76.53-.16"/>
      </g>
    </g>
  </g>
</svg>