<?xml version="1.0" encoding="UTF-8"?>
<svg id="Layer_2" data-name="Layer 2" xmlns="http://www.w3.org/2000/svg" xmlns:xlink="http://www.w3.org/1999/xlink" viewBox="0 0 1276.23 169.32">
  <defs>
    <style>
      .cls-1 {
        stroke-width: 0px;
      }

      .cls-1, .cls-2, .cls-3 {
        fill: none;
      }

      .cls-2 {
        stroke-width: 2.88px;
      }

      .cls-2, .cls-3 {
        stroke: #00c1de;
        stroke-linecap: round;
        stroke-linejoin: round;
      }

      .cls-4 {
        clip-path: url(#clippath-1);
      }

      .cls-5 {
        clip-path: url(#clippath);
      }

      .cls-3 {
        stroke-width: 2.95px;
      }
    </style>
    <clipPath id="clippath">
      <rect class="cls-1" width="1276.23" height="169.32"/>
    </clipPath>
    <clipPath id="clippath-1">
      <rect class="cls-1" x="1006.45" y="31.31" width="112.21" height="95.25"/>
    </clipPath>
  </defs>
  <g id="Layer_1-2" data-name="Layer 1">
    <g class="cls-5">
      <g>
        <g class="cls-4">
          <path class="cls-2" d="M1008.13,79.41h28.15v13.61h12.06v-9.56h-6.37v34.75h-6.03l.1-17.6h12.08v17.6h34.59v-17.6h11.73v17.6h14.28l-16.62-73.09h-5.9s2.73-.01,2.73-.01c3.08,0,5.57-2.49,5.57-5.57v-.19c0-3.51-2.85-6.36-6.36-6.36h-6.99c-1.8,0-3.27,1.46-3.27,3.27h-.03c0-1.81-1.46-3.27-3.27-3.27h-43.69c-1.81,0-3.27,1.46-3.27,3.27l-.02.25c0,7.62,6.18,13.81,13.8,13.81,3.6,0,6.88-1.38,9.34-3.64l.8-.75s-1.06-1.56-1.27-2.14c-.17-.5-.3-2.09-.3-2.09,0,3.51,2.84,6.35,6.35,6.35,1.75,0,3.29-.65,4.44-1.8,0,0-1.46-1.82-1.7-2.49-.42-1.17-.51-2.71-.51-2.71,0,3.96,3.21,7.16,7.16,7.16s7.16-3.21,7.16-7.16c0,0,.74,2.17,3.04,2.12l2.3-.05s.68,1.04,2.07,1.73l1.52.27-8.99,42.68h-8.78v5.69-28.66l-10.58,8.84v-8.84l-11.79,8.84v-8.84l-10.92,8.84v-8.84l-11.65,8.84v51.2h93.8c2.29,0,3.98-2.12,3.46-4.35l-9.48-41.11h10.1"/>
        </g>
        <path class="cls-3" d="M0,149.14c74.7,2.35,74.7-38.24,168.84-40.56,122.33-3.01,95.38,30.51,250.64,32.28,189.25,2.15,199.42-57.7,482.5-58.57,44.38-.14,90.33-.11,90.33-.11"/>
        <path class="cls-3" d="M1972.65,181.59c-63.29,3.6-63.29-58.54-143.05-62.09-103.64-4.61-80.81,46.71-212.36,49.41-160.34,3.29-168.96-88.32-408.8-89.66-37.6-.21-76.53-.16-76.53-.16"/>
      </g>
    </g>
  </g>
</svg>