<?xml version="1.0" encoding="UTF-8"?>
<svg id="Layer_2" data-name="Layer 2" xmlns="http://www.w3.org/2000/svg" xmlns:xlink="http://www.w3.org/1999/xlink" viewBox="0 0 1278.52 151.91">
  <defs>
    <style>
      .cls-1 {
        stroke-width: 0px;
      }

      .cls-1, .cls-2, .cls-3 {
        fill: none;
      }

      .cls-2 {
        stroke: #000f9f;
        stroke-width: 3px;
      }

      .cls-2, .cls-3 {
        stroke-linecap: round;
        stroke-linejoin: round;
      }

      .cls-4 {
        clip-path: url(#clippath-1);
      }

      .cls-5 {
        clip-path: url(#clippath);
      }

      .cls-3 {
        stroke: #243588;
        stroke-width: 2.95px;
      }
    </style>
    <clipPath id="clippath">
      <rect class="cls-1" width="1278.52" height="151.91"/>
    </clipPath>
    <clipPath id="clippath-1">
      <path class="cls-1" d="M1012.97,16.65c-3.27,2.88-6.28,6.03-9.01,9.43v93.75c2.59,3.23,5.44,6.25,8.53,9.01h100.04c3.11-2.79,5.99-5.83,8.6-9.09V26.17c-2.74-3.43-5.78-6.62-9.07-9.52h-99.09Z"/>
    </clipPath>
  </defs>
  <g id="Layer_1-2" data-name="Layer 1">
    <g class="cls-5">
      <g>
        <g class="cls-4">
          <path class="cls-2" d="M1005.72,73.14l23.1.06c1-10.08,33.59-54.8,33.59-54.8,0,0,36.78,45.28,37.46,71.02.33,12.58-6.45,37.67-35.04,37.67-18.45,0-33.27-14.95-33.27-33.4,0,0-.36-9.24,3.54-19.37,7.31-19.01,27.47-45.29,27.47-45.29,0,0,19.03,22.73,26.26,42.78,0,0,4.82,11.07-1.7,17.17-4.23,3.97-9.62,3.67-13.29,0-3.67-3.67-4.85-15.85,10.17-15.85h35.4"/>
        </g>
        <path class="cls-3" d="M992.32,72.85c-74.7-2.35-74.7,38.24-168.84,40.56-122.33,3.01-95.38-30.51-250.64-32.28-189.25-2.15-199.42,57.7-482.5,58.57-44.38.14-90.33.11-90.33.11"/>
        <path class="cls-3" d="M1972.65,175.26c-63.29,3.6-63.29-58.54-143.05-62.09-103.64-4.61-80.81,46.71-212.36,49.41-160.34,3.29-168.96-88.32-408.8-89.66-37.6-.21-76.53-.16-76.53-.16"/>
      </g>
    </g>
  </g>
</svg>