<?xml version="1.0" encoding="UTF-8"?>
<svg id="Layer_2" data-name="Layer 2" xmlns="http://www.w3.org/2000/svg" xmlns:xlink="http://www.w3.org/1999/xlink" viewBox="0 0 85.09 72.23">
  <defs>
    <style>
      .cls-1 {
        stroke-width: 0px;
      }

      .cls-1, .cls-2 {
        fill: none;
      }

      .cls-2 {
        stroke: #c8c8c8;
        stroke-linecap: round;
        stroke-linejoin: round;
        stroke-width: 2.18px;
      }

      .cls-3 {
        clip-path: url(#clippath);
      }
    </style>
    <clipPath id="clippath">
      <rect class="cls-1" width="85.09" height="72.23"/>
    </clipPath>
  </defs>
  <g id="Layer_1-2" data-name="Layer 1">
    <g class="cls-3">
      <path class="cls-2" d="M1.27,36.48h21.35v10.32h9.15v-7.25h-4.83v26.35h-4.57l.07-13.35h9.16v13.35h26.23v-13.35h8.9v13.35h10.83l-12.61-55.43h-4.48s2.07,0,2.07,0c2.33,0,4.23-1.89,4.23-4.23v-.14c0-2.66-2.16-4.82-4.82-4.82h-5.3c-1.37,0-2.48,1.11-2.48,2.48h-.02c0-1.37-1.11-2.48-2.48-2.48H18.53c-1.37,0-2.48,1.11-2.48,2.48l-.02.19c0,5.78,4.69,10.47,10.47,10.47,2.73,0,5.22-1.04,7.08-2.76l.61-.57s-.81-1.18-.96-1.62c-.13-.38-.23-1.58-.23-1.58,0,2.66,2.16,4.82,4.82,4.82,1.33,0,2.49-.49,3.37-1.36,0,0-1.1-1.38-1.29-1.89-.32-.88-.39-2.05-.39-2.05,0,3,2.43,5.43,5.43,5.43s5.43-2.43,5.43-5.43c0,0,.56,1.65,2.3,1.61l1.74-.04s.52.79,1.57,1.31l1.15.2-6.82,32.36h-6.66v4.32-21.73l-8.02,6.71v-6.71l-8.94,6.71v-6.71l-8.28,6.71v-6.71l-8.83,6.71v38.83h71.14c1.73,0,3.01-1.61,2.62-3.3l-7.19-31.18h7.66"/>
    </g>
  </g>
</svg>