<?xml version="1.0" encoding="UTF-8"?>
<svg id="Layer_2" data-name="Layer 2" xmlns="http://www.w3.org/2000/svg" xmlns:xlink="http://www.w3.org/1999/xlink" viewBox="0 0 93.77 68.53">
  <defs>
    <style>
      .cls-1 {
        stroke-width: 0px;
      }

      .cls-1, .cls-2 {
        fill: none;
      }

      .cls-2 {
        stroke: #c8c8c8;
        stroke-linecap: round;
        stroke-linejoin: round;
        stroke-width: 2.18px;
      }

      .cls-3 {
        clip-path: url(#clippath);
      }
    </style>
    <clipPath id="clippath">
      <path class="cls-1" d="M8.36,0C4.98,3.79,2.15,8.09,0,12.76v43.11c2.13,4.63,4.93,8.89,8.27,12.66h77.24c3.34-3.77,6.14-8.03,8.27-12.66V12.76c-2.15-4.67-4.98-8.97-8.36-12.76H8.36Z"/>
    </clipPath>
  </defs>
  <g id="Layer_1-2" data-name="Layer 1">
    <g class="cls-3">
      <path class="cls-2" d="M92.5,33.65h-4.78v-7.98L67.31,1.27l-5.49,5.08,19.98,22.94-10.13,9.36,6.69-6.12-20.31-23.36s-1.99,5.53-11.81,4.01c-3.02-.47-7.86,2.04-8.19,4s-2.14,4.89-2.83,5.63c-5.31,5.63,2.33,7.67,4.93,4.88,1.79-1.93,4.48-5.14,4.48-5.14l4.61.3,23.13,23.57c1.45,1.54,1.43,4.01-.03,5.53-1.46,1.52-3.82,1.5-5.27-.03l-13.66-13.54h0s13.66,13.54,13.66,13.54c1.45,1.54,1.43,4.01-.03,5.53-1.46,1.52-4.99.89-6.44-.64l-11.88-11.62h0s11.88,11.62,11.88,11.62c1.45,1.54,1.43,4.01-.03,5.53-1.46,1.52-3.82,1.5-5.27-.03l-10.65-10.26,8.33,8.22c1.45,1.54,1.61,3.94.14,5.46-1.46,1.52-3.82,1.51-5.27-.03l-4.01-4-2.24,1.79c-1.78,1.49-3.83,1.39-5.36-.28-1.28-1.4-1.2-3.84-.18-5.33.04-.06,1.77-2.12,1.77-2.12l2.61,2.6-2.61-2.6-1.77,2.12-1.02.78c-1.9,1.42-4.53.96-5.89-1.04-1.16-1.7-1.3-3.9-.05-5.41.02-.03,2.58-2.65,2.58-2.65l3.45,3.49-3.45-3.49-2.58,2.65-.93.7c-1.9,1.42-4.53.96-5.89-1.04-1.09-1.61-1.02-3.97.05-5.48.04-.05,3.01-3.04,3.01-3.04l3.3,3.19-3.3-3.19-3.01,3.04-.71.53c-1.9,1.42-4.54.96-5.89-1.03-1.35-1.99-.91-4.76.99-6.18l2.75-2.38,3.03,3.07-3.03-3.08-.4-.36-5.54-5.52,18.48-22.64,8.52.85-8.52-.85-6.47-5.87L7.55,24.72l3.31,3.76-4.56,5.3-5.02-.03"/>
    </g>
  </g>
</svg>